<svg width="944" height="768" viewBox="0 0 944 768" fill="none" xmlns="http://www.w3.org/2000/svg">
<path d="M688 0C829.385 0 944 114.615 944 256C944 397.385 829.385 512 688 512C638.03 512 591.404 497.682 552 472.926V367.76C584.284 407 633.219 432.025 688 432.025C785.216 432.025 864.025 353.216 864.025 256C864.025 158.784 785.216 79.9746 688 79.9746C633.219 79.9746 584.284 104.999 552 144.239V39.0732C591.404 14.3173 638.03 0 688 0ZM512 253.157C511.985 254.103 511.975 255.051 511.975 256C511.975 256.949 511.985 257.896 512 258.842V441.902C462.733 395.244 432 329.211 432 256C432 182.789 462.733 116.756 512 70.0967V253.157Z" fill="black"/>
<path d="M472 512L472 384L472 320L472 256" stroke="black" stroke-width="80"/>
<path d="M236 337.099C148.201 347.028 79.9746 421.546 79.9746 512C79.9746 602.454 148.201 676.971 236 686.9V767.229C103.963 757.026 0 646.654 0 512C0 377.346 103.963 266.973 236 256.77V337.099ZM276 256.77C408.037 266.973 512 377.346 512 512C512 646.654 408.037 757.026 276 767.229V686.9C363.799 676.971 432.025 602.454 432.025 512C432.025 421.546 363.799 347.028 276 337.099V256.77Z" fill="black"/>
</svg>
