<svg width="512" height="512" viewBox="0 0 512 512" fill="none" xmlns="http://www.w3.org/2000/svg">
<path fill-rule="evenodd" clip-rule="evenodd" d="M457.949 201.413C457.949 249.683 418.791 288.814 370.487 288.814C353.405 288.814 337.467 283.92 324 275.459V335.02C338.56 340.078 354.203 342.827 370.487 342.827C448.643 342.827 512 279.514 512 201.413C512 123.313 448.643 60 370.487 60C292.334 60 228.977 123.31 228.974 201.408C204.901 182.471 174.527 171.173 141.513 171.173C63.3574 171.173 0 234.486 0 312.587C0 390.687 63.3574 454 141.513 454C219.666 454 283.023 390.69 283.026 312.592V312.587V201.413C283.026 153.144 322.184 114.013 370.487 114.013C418.791 114.013 457.949 153.144 457.949 201.413ZM141.513 399.987C189.816 399.987 228.974 360.856 228.974 312.587C228.974 264.317 189.816 225.186 141.513 225.186C93.2091 225.186 54.0513 264.317 54.0513 312.587C54.0513 360.856 93.2091 399.987 141.513 399.987Z" fill="black"/>
</svg>
